<?xml version="1.0" encoding="UTF-8" standalone="no"?>
<!-- Created with Inkscape (http://www.inkscape.org/) -->

<svg
   width="181.81075mm"
   height="74.602386mm"
   viewBox="0 0 181.81075 74.602385"
   version="1.1"
   id="svg1"
   xml:space="preserve"
   inkscape:version="1.4 (e7c3feb100, 2024-10-09)"
   sodipodi:docname="sv-logo.svg"
   xmlns:inkscape="http://www.inkscape.org/namespaces/inkscape"
   xmlns:sodipodi="http://sodipodi.sourceforge.net/DTD/sodipodi-0.dtd"
   xmlns:xlink="http://www.w3.org/1999/xlink"
   xmlns="http://www.w3.org/2000/svg"
   xmlns:svg="http://www.w3.org/2000/svg"><sodipodi:namedview
     id="namedview1"
     pagecolor="#ffffff"
     bordercolor="#999999"
     borderopacity="1"
     inkscape:showpageshadow="2"
     inkscape:pageopacity="0"
     inkscape:pagecheckerboard="0"
     inkscape:deskcolor="#d1d1d1"
     inkscape:document-units="mm"
     inkscape:zoom="1.0582793"
     inkscape:cx="301.90517"
     inkscape:cy="154.96854"
     inkscape:window-width="1920"
     inkscape:window-height="1011"
     inkscape:window-x="0"
     inkscape:window-y="32"
     inkscape:window-maximized="1"
     inkscape:current-layer="layer1" /><defs
     id="defs1" /><g
     inkscape:label="Layer 1"
     inkscape:groupmode="layer"
     id="layer1"
     transform="translate(-16.003866,-83.555918)"><rect
       style="fill:#ffffff;stroke:#ffffff;stroke-width:0.264583"
       id="rect1"
       width="181.54616"
       height="74.337807"
       x="16.136158"
       y="83.68821" /><g
       id="g1"
       transform="matrix(0.26458333,0,0,0.26458333,0.14985286,62.687918)"><g
         id="Layer_2"
         class="st0">
	
		<image
   style="display:inline;overflow:visible"
   width="294"
   height="103"
   xlink:href="../../../SystemVerilog_logo.png"
   transform="matrix(2.3741,0,0,2.3741,47,66.4626)"
   id="image1">
	</image>
</g><g
         id="draw">
	<g
   id="g15">
		<path
   class="st1"
   d="m 152.6,215.1 c 1.7,4.4 3.7,7.9 5.9,10.5 3.9,4.6 8.8,6.8 14.7,6.8 3.2,0 5.9,-1 8.2,-3 2.3,-2 3.5,-4.7 3.5,-8.3 0,-3.2 -1.2,-6 -3.5,-8.3 -1.5,-1.5 -4.7,-3.7 -9.6,-6.7 l -8.5,-5.2 c -2.6,-1.6 -4.6,-3.2 -6.1,-4.8 -2.8,-3.1 -4.2,-6.5 -4.2,-10.2 0,-4.9 1.7,-9 5,-12.3 3.3,-3.3 7.8,-4.9 13.3,-4.9 2.3,0 5,0.5 8.2,1.6 3.2,1.1 5,1.6 5.5,1.6 1.2,0 2.1,-0.3 2.6,-0.9 0.5,-0.6 0.8,-1.4 1.1,-2.4 h 2 l 2.2,20.8 h -2.4 c -1.6,-6.3 -4.2,-10.7 -7.8,-13.1 -3.6,-2.5 -7.1,-3.7 -10.6,-3.7 -2.7,0 -5.1,0.8 -7.1,2.4 -2,1.6 -3,3.8 -3,6.6 0,2.5 0.8,4.7 2.3,6.4 1.6,1.8 4,3.7 7.2,5.7 l 8.7,5.3 c 5.5,3.3 9.3,6.4 11.6,9.1 2.2,2.8 3.3,6.1 3.3,9.9 0,5.1 -2,9.4 -5.9,12.9 -3.9,3.4 -9,5.2 -15.1,5.2 -3.1,0 -6.3,-0.6 -9.6,-1.7 -3.4,-1.1 -5.3,-1.7 -5.8,-1.7 -1.2,0 -2,0.4 -2.4,1.1 -0.4,0.7 -0.7,1.5 -0.8,2.2 h -2.2 l -3,-20.8 h 2.3 z"
   id="path1" />
		<path
   class="st1"
   d="m 192.2,192.3 h 20.5 v 1.3 c -1.6,0 -2.8,0.2 -3.6,0.4 -1.5,0.4 -2.2,1.3 -2.2,2.5 0,0.5 0.1,0.9 0.2,1.4 0.2,0.5 0.5,1.2 0.9,2.1 l 11.2,23.9 9.3,-24.1 c 0.1,-0.3 0.3,-0.8 0.5,-1.8 0.2,-0.9 0.3,-1.5 0.3,-1.9 0,-0.8 -0.3,-1.5 -0.9,-1.9 -0.6,-0.4 -1.3,-0.6 -2.2,-0.7 l -1.5,-0.1 v -1.3 H 238 v 1.3 c -1.3,0.2 -2.3,0.6 -3,1.4 -0.7,0.8 -1.2,1.8 -1.7,3.2 L 218,238 c -2.7,6.9 -5.2,11.9 -7.6,15 -2.4,3.1 -5.5,4.6 -9.2,4.6 -1.8,0 -3.5,-0.4 -5.1,-1.3 -1.6,-0.9 -2.4,-2.3 -2.4,-4.3 0,-1.3 0.5,-2.3 1.4,-3.1 0.9,-0.8 2.1,-1.2 3.6,-1.2 0.8,0 2.1,0.3 3.7,0.9 1.6,0.6 2.8,0.9 3.5,0.9 1.8,0 3.7,-2.2 5.7,-6.5 2,-4.3 3,-7.2 3,-8.6 0,-0.3 0,-0.6 -0.1,-1 -0.1,-0.4 -0.2,-0.8 -0.3,-1.1 l -15.3,-32.6 c -1.1,-2.4 -2.1,-3.9 -2.9,-4.7 -0.8,-0.7 -2,-1.2 -3.7,-1.5 v -1.2 z"
   id="path2" />
		<path
   class="st1"
   d="m 239.2,221.1 h 1.6 c 0.7,3.4 1.7,6 3,7.8 2.3,3.3 5.6,5 9.9,5 2.4,0 4.3,-0.6 5.7,-1.9 1.4,-1.2 2.1,-2.8 2.1,-4.8 0,-1.3 -0.4,-2.5 -1.2,-3.6 -0.8,-1.2 -2.2,-2.3 -4.3,-3.4 l -5.4,-2.9 c -4,-2 -6.9,-3.9 -8.8,-5.9 -1.9,-2 -2.8,-4.3 -2.8,-7.1 0,-3.3 1.3,-6.1 3.9,-8.2 2.6,-2.1 5.8,-3.2 9.8,-3.2 1.7,0 3.6,0.3 5.7,0.9 2.1,0.6 3.2,0.9 3.5,0.9 0.6,0 1,-0.1 1.3,-0.2 0.3,-0.1 0.5,-0.4 0.7,-0.7 h 1.2 l 0.3,12.5 h -1.5 c -0.6,-2.9 -1.5,-5.1 -2.6,-6.7 -2,-3 -4.9,-4.5 -8.7,-4.5 -2.3,0 -4,0.6 -5.3,1.9 -1.3,1.3 -1.9,2.8 -1.9,4.5 0,2.7 2.2,5.2 6.7,7.3 l 6.4,3.2 c 6.9,3.5 10.3,7.5 10.3,12.1 0,3.5 -1.4,6.4 -4.3,8.6 -2.9,2.2 -6.6,3.4 -11.2,3.4 -1.9,0 -4.1,-0.3 -6.6,-0.9 -2.5,-0.6 -3.9,-0.9 -4.4,-0.9 -0.4,0 -0.7,0.1 -1,0.4 -0.3,0.3 -0.5,0.6 -0.7,0.9 h -1.3 v -14.5 z"
   id="path3" />
		<path
   class="st1"
   d="m 294.8,195.9 v 3.1 h -10.2 l -0.1,24.6 c 0,2.2 0.2,3.8 0.6,4.9 0.8,2 2.4,2.9 4.7,2.9 1.2,0 2.2,-0.2 3.1,-0.7 0.9,-0.5 1.9,-1.3 3,-2.3 l 1.3,0.9 -1.1,1.3 c -1.7,2 -3.6,3.4 -5.5,4.2 -1.9,0.8 -3.8,1.2 -5.6,1.2 -3.9,0 -6.6,-1.5 -8,-4.5 -0.8,-1.6 -1.1,-3.9 -1.1,-6.7 v -25.9 h -5.4 c -0.2,-0.1 -0.3,-0.2 -0.4,-0.3 -0.1,-0.1 -0.1,-0.2 -0.1,-0.3 0,-0.3 0.1,-0.5 0.2,-0.7 0.1,-0.2 0.6,-0.5 1.4,-1.1 2.3,-1.6 3.9,-2.9 5,-3.9 1,-1 3.4,-3.7 7.1,-8 0.4,0 0.7,0 0.8,0.1 0.1,0.1 0.1,0.3 0.1,0.6 v 10.5 h 10.2 z"
   id="path4" />
		<path
   class="st1"
   d="m 330.7,199.2 c 3.1,2.8 4.6,6.7 4.6,11.8 h -27.5 c 0.3,6.6 1.8,11.4 4.5,14.4 2.7,3 6,4.5 9.7,4.5 3,0 5.6,-0.8 7.7,-2.3 2.1,-1.6 4,-3.8 5.8,-6.6 l 1.5,0.5 c -1.2,3.6 -3.4,7 -6.6,10 -3.2,3.1 -7.2,4.6 -11.9,4.6 -5.4,0 -9.6,-2 -12.6,-6 -3,-4 -4.4,-8.7 -4.4,-13.9 0,-5.7 1.7,-10.6 5.2,-14.8 3.4,-4.1 7.9,-6.2 13.4,-6.2 4,-0.2 7.5,1.2 10.6,4 z m -20.8,3.3 c -0.9,1.5 -1.6,3.5 -2,5.8 h 18.3 c -0.3,-2.8 -0.9,-5 -1.6,-6.3 -1.4,-2.5 -3.8,-3.7 -7.1,-3.7 -3.3,-0.1 -5.8,1.3 -7.6,4.2 z"
   id="path5" />
		<path
   class="st1"
   d="m 340.4,234.8 c 2.5,-0.2 4.2,-0.6 5,-1.2 1.3,-0.9 1.9,-2.7 1.9,-5.3 v -23.7 c 0,-2.3 -0.3,-3.7 -0.9,-4.4 -0.6,-0.7 -1.7,-1.1 -3.1,-1.1 -0.7,0 -1.2,0 -1.5,0.1 -0.3,0.1 -0.7,0.2 -1.2,0.3 v -1.6 l 3.5,-1.1 c 1.3,-0.4 3.3,-1.1 6.2,-2.2 2.9,-1 4.4,-1.6 4.5,-1.6 0.2,0 0.3,0.1 0.3,0.2 0,0.2 0,0.4 0,0.9 v 6.2 c 3.2,-2.8 5.9,-4.7 8.2,-5.7 2.3,-1.1 4.7,-1.6 7.1,-1.6 3.3,0 5.9,1.1 7.9,3.2 1,1.2 1.9,2.7 2.6,4.7 2.4,-2.3 4.5,-4 6.2,-5.1 3.1,-1.9 6.2,-2.8 9.4,-2.8 5.2,0 8.6,2 10.4,6 1,2.3 1.5,5.8 1.5,10.7 v 19 c 0,2.2 0.5,3.6 1.5,4.4 1,0.8 2.8,1.3 5.5,1.5 v 1.2 h -21.8 v -1.3 c 2.8,-0.2 4.6,-0.8 5.5,-1.6 0.9,-0.8 1.3,-2.5 1.3,-5 v -19.8 c 0,-3 -0.3,-5.1 -1,-6.6 -1.2,-2.5 -3.5,-3.8 -7,-3.8 -2.1,0 -4.2,0.7 -6.2,2 -1.2,0.8 -2.7,2 -4.4,3.7 v 23.5 c 0,2.5 0.5,4.4 1.4,5.6 0.9,1.3 2.9,2 5.8,2.1 v 1.2 h -22.1 v -1.2 c 3.1,-0.4 5,-1.1 5.8,-2.1 0.8,-1 1.3,-3.6 1.3,-7.7 V 212 c 0,-4.7 -0.3,-7.9 -1,-9.7 -1.1,-3 -3.3,-4.5 -6.8,-4.5 -2,0 -3.9,0.5 -5.8,1.5 -1.9,1 -3.6,2.4 -5,4 v 25.1 c 0,2.3 0.4,3.9 1.3,4.8 0.9,0.9 2.7,1.3 5.6,1.4 v 1.2 h -21.9 z"
   id="path6" />
		<path
   class="st1"
   d="m 423.9,170.2 v 1.7 c -2.5,0 -4.2,0.2 -5.1,0.5 -1.6,0.5 -2.4,1.6 -2.4,3.2 0,0.8 0.3,1.9 0.8,3.4 0.6,1.5 1.6,3.9 3.2,7.2 l 15.6,34.1 14.1,-36.9 c 0.6,-1.6 1.1,-3 1.4,-4.1 0.3,-1.1 0.5,-2.1 0.5,-2.8 0,-1.9 -0.8,-3.2 -2.5,-3.9 -1,-0.4 -2.6,-0.6 -4.8,-0.7 v -1.7 H 465 v 1.7 c -2.1,0.3 -3.7,0.8 -4.7,1.7 -1.5,1.2 -3,3.7 -4.5,7.5 l -22,55 h -1.5 l -24.6,-53.8 c -2.1,-4.6 -3.7,-7.4 -5,-8.5 -1.2,-1.1 -3.1,-1.8 -5.5,-1.9 v -1.7 z"
   id="path7" />
		<path
   class="st1"
   d="m 483.1,194.7 c 3.4,3.1 5.1,7.5 5.1,13.2 h -30.8 c 0.3,7.4 2,12.7 5.1,16.1 3.1,3.4 6.7,5.1 10.9,5.1 3.4,0 6.3,-0.9 8.6,-2.6 2.3,-1.7 4.5,-4.2 6.5,-7.4 l 1.7,0.6 c -1.3,4.1 -3.8,7.8 -7.5,11.2 -3.6,3.4 -8.1,5.2 -13.4,5.2 -6.1,0 -10.8,-2.3 -14.1,-6.8 -3.3,-4.5 -5,-9.7 -5,-15.6 0,-6.4 1.9,-11.9 5.8,-16.6 3.9,-4.7 8.9,-7 15.1,-7 4.6,0 8.6,1.5 12,4.6 z m -23.3,3.7 c -1,1.7 -1.8,3.9 -2.2,6.5 h 20.5 c -0.4,-3.2 -1,-5.6 -1.8,-7.1 -1.6,-2.8 -4.2,-4.2 -8,-4.2 -3.7,0 -6.5,1.6 -8.5,4.8 z"
   id="path8" />
		<path
   class="st1"
   d="m 491.3,234.4 c 3,-0.3 5,-0.8 5.9,-1.6 0.9,-0.8 1.5,-2.4 1.5,-5 v -21.5 c 0,-3.2 -0.3,-5.4 -0.9,-6.8 -0.6,-1.4 -1.7,-2 -3.3,-2 -0.3,0 -0.8,0 -1.3,0.1 -0.5,0.1 -1.1,0.2 -1.7,0.3 v -1.6 c 1.8,-0.6 3.7,-1.3 5.7,-2 1.9,-0.7 3.3,-1.1 4,-1.4 1.6,-0.6 3.3,-1.3 5,-2.1 0.2,0 0.4,0.1 0.4,0.2 0,0.2 0.1,0.5 0.1,1 v 7.8 c 2.1,-2.8 4.1,-5 6,-6.6 1.9,-1.6 3.9,-2.4 6,-2.4 1.7,0 3,0.5 4,1.5 1,1 1.6,2.2 1.6,3.7 0,1.3 -0.4,2.4 -1.2,3.3 -0.8,0.9 -1.8,1.3 -3,1.3 -1.2,0 -2.5,-0.6 -3.7,-1.7 -1.2,-1.1 -2.2,-1.7 -2.9,-1.7 -1.1,0 -2.5,0.9 -4.2,2.7 -1.7,1.8 -2.5,3.7 -2.5,5.6 V 227 c 0,2.7 0.6,4.6 1.9,5.7 1.3,1.1 3.4,1.6 6.5,1.5 v 1.6 h -23.9 z"
   id="path9" />
		<path
   class="st1"
   d="m 525.7,234.7 c 3.5,-0.3 5.7,-0.9 6.6,-1.7 0.9,-0.8 1.4,-3.1 1.4,-6.9 v -22.8 c 0,-2.1 -0.1,-3.5 -0.4,-4.3 -0.5,-1.3 -1.5,-2 -3.1,-2 -0.4,0 -0.7,0 -1,0.1 -0.3,0.1 -1.3,0.3 -2.9,0.8 v -1.5 l 2.1,-0.7 c 5.7,-1.8 9.6,-3.2 11.9,-4.1 0.9,-0.4 1.5,-0.6 1.7,-0.6 0.1,0.2 0.1,0.5 0.1,0.7 V 226 c 0,3.6 0.4,5.9 1.3,6.8 0.9,0.9 2.9,1.5 6,1.8 v 1.3 h -23.6 v -1.2 z m 7.7,-63.9 c 1,-1 2.2,-1.5 3.6,-1.5 1.4,0 2.6,0.5 3.6,1.5 1,1 1.5,2.1 1.5,3.5 0,1.4 -0.5,2.5 -1.5,3.5 -1,1 -2.2,1.4 -3.6,1.4 -1.4,0 -2.6,-0.5 -3.6,-1.4 -1,-1 -1.5,-2.1 -1.5,-3.5 0,-1.4 0.6,-2.5 1.5,-3.5 z"
   id="path10" />
		<path
   class="st1"
   d="m 553.2,234.7 c 3,-0.3 5.1,-0.9 6.1,-1.8 1.1,-0.9 1.6,-2.7 1.6,-5.3 v -46.7 c 0,-2.1 -0.2,-3.6 -0.5,-4.3 -0.6,-1.3 -2,-2 -3.9,-2 -0.5,0 -0.9,0 -1.5,0.1 -0.5,0.1 -1.2,0.2 -2,0.4 v -1.6 c 4.4,-1.1 9.6,-2.7 15.8,-4.6 0.2,0 0.4,0.1 0.4,0.3 0,0.2 0.1,0.6 0.1,1.2 v 57.3 c 0,2.8 0.5,4.6 1.5,5.4 1,0.8 3,1.3 6,1.6 v 1.3 h -23.5 v -1.3 z"
   id="path11" />
		<path
   class="st1"
   d="m 580.1,196.3 c 4.1,-4.4 9.4,-6.6 15.8,-6.6 6.4,0 11.7,2.1 15.9,6.2 4.2,4.1 6.3,9.6 6.3,16.5 0,6.3 -2,11.8 -6.1,16.5 -4.1,4.7 -9.4,7 -15.8,7 -6.2,0 -11.5,-2.2 -15.8,-6.7 -4.3,-4.5 -6.5,-10.1 -6.5,-16.9 0.1,-6.3 2.1,-11.6 6.2,-16 z m 7.8,-1.2 c -3.2,2.9 -4.9,7.9 -4.9,15 0,5.7 1.3,11 3.9,15.9 2.6,4.9 6.2,7.4 10.9,7.4 3.6,0 6.4,-1.6 8.4,-4.9 2,-3.3 2.9,-7.6 2.9,-12.9 0,-5.5 -1.2,-10.7 -3.7,-15.6 -2.5,-4.9 -6.1,-7.3 -10.9,-7.3 -2.5,-0.1 -4.7,0.7 -6.6,2.4 z"
   id="path12" />
		<path
   class="st1"
   d="m 627.9,215.7 c -1.7,-2.5 -2.6,-5.4 -2.6,-8.5 0,-3.8 1.6,-7.5 4.8,-10.9 3.2,-3.4 7.7,-5.2 13.6,-5.2 2.5,0 5.3,0.6 8.3,1.7 3,1.1 5.9,1.7 8.7,1.7 0.7,0 1.8,0 3.3,-0.1 1.5,-0.1 2.5,-0.1 3.2,-0.1 h 0.6 v 4 h -8.9 c 0.6,1.4 1.1,2.6 1.4,3.6 0.6,1.9 0.9,3.7 0.9,5.4 0,3.7 -1.6,7.2 -4.9,10.3 -3.3,3.1 -7.6,4.7 -13.2,4.7 -0.9,0 -2.4,-0.1 -4.7,-0.4 -1,0 -2.3,0.8 -4,2.4 -1.7,1.6 -2.5,2.9 -2.5,3.9 0,1.1 1.2,1.8 3.6,2.3 1.6,0.3 3.3,0.5 5.3,0.5 8.9,0 14.9,0.5 18.1,1.4 5.2,1.5 7.8,4.8 7.8,9.9 0,5.2 -3,9.3 -9.1,12.4 -6.1,3.1 -12.2,4.6 -18.4,4.6 -5.7,0 -10.1,-1.1 -13.4,-3.3 -3.3,-2.2 -5,-4.5 -5,-6.9 0,-1.2 0.4,-2.3 1.3,-3.5 0.9,-1.1 2.6,-2.8 5.2,-5 l 3.4,-2.9 0.6,-0.6 c -1.6,-0.6 -2.8,-1.2 -3.5,-1.7 -1.4,-1 -2.1,-2.2 -2.1,-3.5 0,-1.2 0.6,-2.5 1.8,-4 1.2,-1.5 3.7,-3.8 7.6,-7.1 -3.1,-0.8 -5.5,-2.6 -7.2,-5.1 z m 5.4,36.6 c 3.3,1 7,1.6 11.2,1.6 5.7,0 10.4,-0.9 14,-2.8 3.6,-1.9 5.4,-4.2 5.4,-7 0,-2.2 -1.5,-3.7 -4.4,-4.4 -1.8,-0.4 -5.2,-0.7 -10.2,-0.7 -1.3,0 -2.6,-0.1 -4,-0.1 -1.4,0 -2.7,-0.1 -3.9,-0.2 -0.8,0 -2,-0.2 -3.7,-0.4 -1.7,-0.2 -3,-0.4 -3.8,-0.6 -0.4,0 -1.4,1 -3,3.1 -1.6,2.1 -2.5,4 -2.5,5.8 0.1,2.7 1.7,4.6 4.9,5.7 z m 16.5,-33.8 c 2.1,-1.6 3.1,-4.3 3.1,-8.2 0,-3.1 -0.8,-6.6 -2.5,-10.5 -1.7,-3.9 -4.5,-5.8 -8.4,-5.8 -3.4,0 -5.7,1.5 -7,4.6 -0.7,1.6 -1,3.6 -1,5.9 0,4 1,7.6 3.1,10.8 2,3.2 4.7,4.8 7.9,4.8 1.9,-0.1 3.5,-0.6 4.8,-1.6 z"
   id="path13" />
		<path
   class="st2"
   d="M 215.4,167 C 227.3,143.3 332.5,98.3 464.6,98.8 571.4,99.2 697.3,113 737.6,189 H 673.5 C 647.4,124.9 348.5,79.3 215.5,167.3 Z"
   id="path14" />
		<path
   class="st2"
   d="M 591.6,256 C 579.7,279.7 474.5,324.7 342.4,324.2 235.6,323.8 109.7,310 69.4,234 h 64.1 c 26.1,64.1 325,109.7 458,21.7 z"
   id="path15" />
	</g>
</g></g></g><style
     type="text/css"
     id="style1">
	.st0{display:none;}
	.st1{fill:#332D37;}
	.st2{fill:#332D37;stroke:#000000;stroke-width:0.25;stroke-linejoin:round;stroke-miterlimit:10;}
</style></svg>
