<?xml version="1.0" encoding="UTF-8" standalone="no"?>
<!-- Created with Inkscape (http://www.inkscape.org/) -->

<svg
   width="91.309219mm"
   height="23.069939mm"
   viewBox="0 0 91.309219 23.069939"
   version="1.1"
   id="svg1"
   xml:space="preserve"
   inkscape:version="1.4 (e7c3feb100, 2024-10-09)"
   sodipodi:docname="synopsys-logo.svg"
   xmlns:inkscape="http://www.inkscape.org/namespaces/inkscape"
   xmlns:sodipodi="http://sodipodi.sourceforge.net/DTD/sodipodi-0.dtd"
   xmlns="http://www.w3.org/2000/svg"
   xmlns:svg="http://www.w3.org/2000/svg"><sodipodi:namedview
     id="namedview1"
     pagecolor="#ffffff"
     bordercolor="#999999"
     borderopacity="1"
     inkscape:showpageshadow="2"
     inkscape:pageopacity="0"
     inkscape:pagecheckerboard="0"
     inkscape:deskcolor="#d1d1d1"
     inkscape:document-units="mm"
     inkscape:zoom="2.993266"
     inkscape:cx="199.28065"
     inkscape:cy="23.385827"
     inkscape:window-width="1920"
     inkscape:window-height="1011"
     inkscape:window-x="0"
     inkscape:window-y="32"
     inkscape:window-maximized="1"
     inkscape:current-layer="layer1" /><defs
     id="defs1" /><g
     inkscape:label="Layer 1"
     inkscape:groupmode="layer"
     id="layer1"
     transform="translate(-57.532889,-136.89627)"><rect
       style="fill:#ffffff;stroke:#ffffff;stroke-width:0.264583"
       id="rect1"
       width="91.04464"
       height="22.805355"
       x="57.66518"
       y="137.02856" /><g
       transform="translate(-36.456051,-113.76275)"
       id="g11"><path
         d="m 102,254.9 c 0,-0.5843 -0.2921,-1.023 -1.583,-1.023 -1.294,0 -1.585,0.4382 -1.585,1.023 v 1.583 c 0,0.4796 0.1667,0.9591 0.6256,1.355 l 4.375,3.752 c 0.627,0.5209 1.002,1.167 1.002,1.834 v 2.376 c 0,1.419 -1.669,2.21 -4.419,2.21 -3.043,0 -4.503,-0.6876 -4.502,-2.21 v -2.062 h 2.752 l -0.0014,1.979 c 0,0.7097 0.5429,1.126 1.751,1.126 1.126,0 1.667,-0.4162 1.667,-1.126 v -2.106 c 0,-0.5209 -0.2081,-0.9178 -0.791,-1.437 l -4.045,-3.522 c -0.7497,-0.6477 -1.167,-1.148 -1.167,-1.918 v -1.813 c 0,-1.48 1.543,-2.21 4.337,-2.21 3.085,0 4.334,0.7304 4.334,2.106 v 1.918 h -2.751 z"
         style="fill:#573885"
         id="path1" /><path
         d="m 131.3,265.4 c 0,0.8337 0.3321,1.418 2.084,1.418 1.751,0 2.085,-0.5843 2.085,-1.418 v -10.13 c 0,-0.8323 -0.3335,-1.417 -2.084,-1.417 -1.751,0 -2.085,0.5843 -2.085,1.417 z m -2.751,-10.17 c 0,-1.48 1.124,-2.542 4.836,-2.542 3.71,0 4.836,1.062 4.836,2.542 l -0.001,10.21 c 0,1.48 -1.124,2.544 -4.836,2.544 -3.71,0 -4.836,-1.064 -4.836,-2.544 z"
         style="fill:#573885"
         id="path2" /><path
         d="m 143.9,259.9 c 1.251,0 2.126,-0.1667 2.126,-0.9384 v -4.064 c 0,-0.7717 -0.875,-0.9384 -2.126,-0.9384 h -1.333 v 5.941 z m -4.085,-7.108 h 4.378 c 3.544,0 4.586,0.5829 4.586,2.293 l -0.003,3.689 c 0,1.709 -1.042,2.293 -4.583,2.293 h -1.626 v 6.774 h -2.752 z"
         style="fill:#573885"
         id="path3" /><path
         d="m 155.6,254.9 c 0,-0.5843 -0.2922,-1.022 -1.583,-1.022 -1.294,0 -1.586,0.4382 -1.586,1.022 v 1.583 c 0,0.4796 0.1667,0.9591 0.6256,1.355 l 4.378,3.752 c 0.6242,0.5209 0.9991,1.167 0.9991,1.834 v 2.377 c 0,1.418 -1.666,2.209 -4.418,2.209 -3.043,0 -4.503,-0.6876 -4.503,-2.21 v -2.063 h 2.752 v 1.98 c 0,0.7097 0.543,1.126 1.751,1.126 1.126,0 1.667,-0.4162 1.667,-1.126 v -2.106 c 0,-0.5209 -0.2067,-0.9164 -0.7924,-1.437 l -4.043,-3.524 c -0.7524,-0.6463 -1.167,-1.147 -1.167,-1.917 v -1.815 c 0,-1.48 1.542,-2.209 4.337,-2.209 3.084,0 4.334,0.729 4.334,2.107 v 1.917 h -2.751 z"
         style="fill:#573885"
         id="path4" /><path
         d="m 175.9,254.9 c 0,-0.5843 -0.2921,-1.022 -1.583,-1.022 -1.293,0 -1.585,0.4382 -1.585,1.022 v 1.585 c 0,0.4782 0.1667,0.9577 0.6256,1.353 l 4.377,3.754 c 0.6256,0.5209 0.9991,1.166 0.9991,1.833 v 2.377 c 0,1.418 -1.666,2.209 -4.417,2.209 -3.044,0 -4.505,-0.6876 -4.505,-2.209 v -2.064 h 2.753 l -10e-4,1.98 c 0,0.7097 0.543,1.126 1.753,1.126 1.123,0 1.666,-0.4162 1.666,-1.126 v -2.106 c 0,-0.5209 -0.2081,-0.9164 -0.7924,-1.437 l -4.043,-3.524 c -0.751,-0.6449 -1.167,-1.145 -1.167,-1.917 v -1.815 c 3e-5,-1.477 1.542,-2.209 4.337,-2.209 3.084,0 4.335,0.7317 4.335,2.107 v 1.917 h -2.752 z"
         style="fill:#573885"
         id="path5" /><path
         d="m 113.4,252.8 h 2.756 l -6.03,18.89 h -2.755 z"
         style="fill:#573885"
         id="path6" /><path
         d="m 109,264.6 -3.728,-11.7 h 2.755 l 2.35,7.377 z"
         style="fill:#573885"
         id="path7" /><path
         d="m 166.9,252.8 h 2.755 l -6.03,18.9 h -2.755 z"
         style="fill:#573885"
         id="path8" /><path
         d="m 162.6,264.5 -3.728,-11.7 h 2.755 l 2.351,7.378 z"
         style="fill:#573885"
         id="path9" /><path
         d="m 126.9,267.9 h 0.0138 v -12.75 c 0,-1.71 -1.043,-2.294 -4.585,-2.294 h -5.307 l -0.001,15.05 h 2.751 l 0.001,-0.006 v -13.88 h 2.264 c 1.25,0 2.125,0.1681 2.125,0.9384 v 12.94 z"
         style="fill:#573885"
         id="path10" /><path
         d="m 181.6,254.6 c 0.2591,0 0.4906,-0.0179 0.4906,-0.328 0,-0.2522 -0.226,-0.2963 -0.4396,-0.2963 h -0.4176 v 0.6242 z m -0.3666,1.136 h -0.3073 v -2.02 h 0.7703 c 0.4782,0 0.7152,0.175 0.7152,0.5733 0,0.3638 -0.2288,0.5209 -0.525,0.5581 l 0.5746,0.8888 h -0.3418 l -0.5347,-0.875 h -0.3514 z m 0.3721,0.4506 c 0.7924,0 1.417,-0.6215 1.417,-1.466 0,-0.8296 -0.6243,-1.455 -1.417,-1.455 -0.8048,0 -1.429,0.6256 -1.429,1.455 0,0.8447 0.6242,1.466 1.429,1.466 m -1.782,-1.466 c 0,-1.005 0.8158,-1.747 1.782,-1.747 0.9536,0 1.768,0.7428 1.768,1.747 0,1.016 -0.8144,1.758 -1.768,1.758 -0.966,0 -1.782,-0.7428 -1.782,-1.758"
         style="fill:#573885"
         id="path11" /></g></g></svg>
