<?xml version="1.0" encoding="UTF-8" standalone="no"?>
<!-- Created with Inkscape (http://www.inkscape.org/) -->

<svg
   width="149.6169mm"
   height="102.08358mm"
   viewBox="0 0 149.6169 102.08358"
   version="1.1"
   id="svg1"
   xml:space="preserve"
   inkscape:version="1.4 (e7c3feb100, 2024-10-09)"
   sodipodi:docname="uvm_logo.svg"
   xmlns:inkscape="http://www.inkscape.org/namespaces/inkscape"
   xmlns:sodipodi="http://sodipodi.sourceforge.net/DTD/sodipodi-0.dtd"
   xmlns:xlink="http://www.w3.org/1999/xlink"
   xmlns="http://www.w3.org/2000/svg"
   xmlns:svg="http://www.w3.org/2000/svg"><sodipodi:namedview
     id="namedview1"
     pagecolor="#ffffff"
     bordercolor="#999999"
     borderopacity="1"
     inkscape:showpageshadow="2"
     inkscape:pageopacity="0"
     inkscape:pagecheckerboard="0"
     inkscape:deskcolor="#d1d1d1"
     inkscape:document-units="mm"
     inkscape:zoom="1.0179639"
     inkscape:cx="266.70886"
     inkscape:cy="199.41767"
     inkscape:window-width="1920"
     inkscape:window-height="1011"
     inkscape:window-x="0"
     inkscape:window-y="32"
     inkscape:window-maximized="1"
     inkscape:current-layer="layer1" /><defs
     id="defs1"><linearGradient
       id="linearGradient4782"
       inkscape:collect="always"><stop
         id="stop4778"
         offset="0"
         style="stop-color:#20aae0;stop-opacity:0.50196081" /><stop
         id="stop4780"
         offset="1"
         style="stop-color:#0057a9;stop-opacity:0.94509804" /></linearGradient><linearGradient
       gradientTransform="matrix(-0.40317459,0,0,-0.40317459,125.67006,-106.40717)"
       inkscape:collect="always"
       xlink:href="#linearGradient4782"
       id="linearGradient1066-7"
       gradientUnits="userSpaceOnUse"
       x1="-201.79933"
       y1="-842.45007"
       x2="8.200676"
       y2="-892.45007" /><linearGradient
       gradientTransform="matrix(0.40317459,0,0,0.40317459,201.22295,528.99701)"
       inkscape:collect="always"
       xlink:href="#linearGradient4782"
       id="linearGradient1066-7-3"
       gradientUnits="userSpaceOnUse"
       x1="-201.79933"
       y1="-842.45007"
       x2="8.200676"
       y2="-892.45007" /></defs><g
     inkscape:label="Layer 1"
     inkscape:groupmode="layer"
     id="layer1"
     transform="translate(-44.384008,-80.061586)"><rect
       style="fill:#ffffff;stroke:#ffffff;stroke-width:0.264584"
       id="rect1"
       width="149.35231"
       height="101.81899"
       x="44.5163"
       y="80.193878" /><g
       id="g1"><path
         style="fill:url(#linearGradient1066-7);fill-opacity:1;stroke:none;stroke-width:0.0403174;stroke-linecap:butt;stroke-linejoin:miter;stroke-miterlimit:4;stroke-dasharray:none;stroke-opacity:1"
         d="m 97.542999,153.95923 -24.031241,-2.01586 12.339179,20.5619 3.225395,-5.24128 c 15.723808,10.48255 56.041278,15.32064 75.796828,-10.88571 -27.0127,18.54604 -54.42857,12.90159 -70.555557,2.82223 z"
         id="path944-3"
         inkscape:connector-curvature="0"
         sodipodi:nodetypes="ccccccc" /><path
         sodipodi:nodetypes="ccccccc"
         inkscape:connector-curvature="0"
         id="path944-3-5"
         d="m 140.84192,108.24751 24.03124,2.01588 -12.33919,-20.561908 -3.22538,5.241264 C 133.58478,84.460217 93.267323,79.622122 73.511758,105.82846 100.52447,87.282434 127.94033,92.926883 144.06731,103.00624 Z"
         style="fill:url(#linearGradient1066-7-3);fill-opacity:1;stroke:none;stroke-width:0.0403174;stroke-linecap:butt;stroke-linejoin:miter;stroke-miterlimit:4;stroke-dasharray:none;stroke-opacity:1" /><g
         transform="matrix(1.5238095,0,0,1.5238095,-13.279191,-115.2731)"
         id="g4821"><path
           style="color:#000000;font-style:normal;font-variant:normal;font-weight:normal;font-stretch:normal;font-size:medium;line-height:normal;font-family:sans-serif;font-variant-ligatures:normal;font-variant-position:normal;font-variant-caps:normal;font-variant-numeric:normal;font-variant-alternates:normal;font-feature-settings:normal;text-indent:0;text-align:start;text-decoration:none;text-decoration-line:none;text-decoration-style:solid;text-decoration-color:#000000;letter-spacing:normal;word-spacing:normal;text-transform:none;writing-mode:lr-tb;direction:ltr;text-orientation:mixed;dominant-baseline:auto;baseline-shift:baseline;text-anchor:start;white-space:normal;shape-padding:0;clip-rule:nonzero;display:inline;overflow:visible;visibility:visible;opacity:1;isolation:auto;mix-blend-mode:normal;color-interpolation:sRGB;color-interpolation-filters:linearRGB;solid-color:#000000;solid-opacity:1;vector-effect:none;fill:#1a1a1a;fill-opacity:1;fill-rule:nonzero;stroke:none;stroke-width:4.7625;stroke-linecap:butt;stroke-linejoin:miter;stroke-miterlimit:4;stroke-dasharray:none;stroke-dashoffset:0;stroke-opacity:1;color-rendering:auto;image-rendering:auto;shape-rendering:auto;text-rendering:auto;enable-background:accumulate"
           d="m 42.484706,150.95071 v 14.53141 c -0.01789,2.05779 1.263833,3.88137 3.073199,5.03225 1.809366,1.15089 4.208444,1.79534 7.188192,1.86707 1.937845,0.0467 3.466848,0.0522 5.413623,-5.3e-4 2.946779,-0.0797 5.332408,-0.72399 7.13858,-1.86603 1.806176,-1.14204 3.101457,-2.9385 3.115572,-4.99556 v -0.008 -14.56035 h -4.7625 v 14.53555 c -5.29e-4,0.0857 0.05333,0.80366 -0.793935,1.33939 -0.847267,0.53573 -2.462757,0.9961 -4.7625,1.05833 -1.87139,0.0506 -3.403171,0.0455 -5.291666,0 -2.332014,-0.0561 -3.661828,-0.52652 -4.497917,-1.05833 -0.836086,-0.53181 -1.058836,-1.2228 -1.058148,-1.3022 v -0.0103 -14.56242 z"
           id="path823-3-7"
           inkscape:connector-curvature="0"
           sodipodi:nodetypes="ccssccccccccccccccc" /><path
           style="fill:#1a1a1a;fill-opacity:1;stroke:#1a1a1a;stroke-width:0.264583px;stroke-linecap:butt;stroke-linejoin:miter;stroke-opacity:1"
           d="m 72.060397,151.08294 h 5.027083 l 7.9375,17.4625 7.9375,-17.4625 h 5.027083 L 88.19998,172.2496 h -6.35 z"
           id="path846-5"
           inkscape:connector-curvature="0"
           sodipodi:nodetypes="cccccccc" /><path
           style="fill:#1a1a1a;fill-opacity:1;stroke:none;stroke-width:0.264583px;stroke-linecap:butt;stroke-linejoin:miter;stroke-opacity:1"
           d="m 101.75119,172.11731 v -21.16666 h 6.08541 l 8.73125,15.34583 8.73125,-15.34583 h 5.82084 l 0.26458,21.43125 h -4.7625 v -14.02292 l -8.20208,14.02292 h -3.70417 l -8.20208,-14.02292 v 14.02292 h -4.7625 z"
           id="path848-3"
           inkscape:connector-curvature="0" /></g></g></g></svg>
